<svg width="52" height="44" viewBox="0 0 52 44" fill="none" xmlns="http://www.w3.org/2000/svg">
<g clip-path="url(#clip0_2104_369)" filter="url(#filter0_i_2104_369)">
<path fill-rule="evenodd" clip-rule="evenodd" d="M3.46655 39.2432V17.4282H5.88604V17.058H6.1094V16.5524H6.29569V16.383H7.5985V16.5524H7.78434V16.8894H7.97062V17.4282H12.5122V16.8894H12.8846V17.2264H13.0706V17.4282H15.3047V17.2264H15.5275V16.8894H15.8999V17.4282H26.9935V15.5402H27.5519V17.4282H33.3972V17.058H33.7696V17.2264H34.3646V17.4282H38.1251V17.058H38.3114V16.7207H38.4977V16.3829H39.8002V16.5522H39.9865V16.8893H40.1728V17.2263H40.3587V17.4281H45.0865V16.7206H45.4589V17.0579H45.6447V17.4281H49.5908V10.4154H45.8309V10.9211H45.4589V10.5841H45.2726V10.4154H41.5131V10.9211H41.1407V10.5841H40.9547V10.4154H34.3648V10.5841H33.7699V10.7528H33.3975V10.4155H29.8233V10.5842H29.265V10.4155H15.1192V10.5842H14.9329V10.9213H14.7466V11.4269H14.5608V11.7982H14.3737V12.1352H14.0016V11.7982H13.8153V11.2586H13.629V10.9213H13.4431V10.5842H13.2569V10.4155H9.3111V11.0898H8.90116V10.7528H8.71532V10.4155H5.14164V10.5842H4.95535V11.0898H4.76907V11.4269H4.58323V11.7982H4.39709V12.3038H4.21081V12.6408H4.02482V12.9781H3.83868V13.4837H3.46655V-4.75684H51.8611V19.2834H48.2876V19.4518H47.543V19.2834H42.8152V19.4518H42.2569V19.2834H35.6682V19.4518H34.923V19.2834H29.4507V19.4518H28.8924V19.2834H22.4896V19.4518H22.3038V19.6205H22.1175V19.7891H21.9312V19.9576H21.7453V20.1263H21.1493V19.9576H20.9633V19.7891H20.7771V19.452H20.5909V19.2835H13.2568V26.2961H20.4049V26.1276H20.5909V25.9589H20.7771V25.7563H20.9633V25.5879H21.1493V25.2506H21.7453V25.4193H21.9312V25.7563H22.1175V25.9589H22.3038V26.1276H22.4896V26.2961H26.9937V24.5768H28.8924V24.4081H29.2647V26.2961H32.8379V24.4081H33.3972V26.2961H45.4586V26.1276H46.0169V25.9589H46.389V26.2959H51.1167V26.1275H51.8613V39.2432H3.46655ZM25.6424 22.7322H28.3823V22.5634H28.5686V21.2958H28.3823V21.1272H25.6424V22.7322V22.7322ZM25.8284 13.6958H28.7545V13.3588H28.9408V12.5967H28.7545V12.2596H25.8284V13.6958ZM14.6081 25.2068V20.3383H19.7982V20.7096H19.984V20.8783H20.1703V21.0467H20.3566V21.2155H20.5424V21.384H20.7287V21.5525H20.915V21.7212H21.1009V21.8899H21.9799V21.7212H22.166V21.5525H22.3519V21.384H22.5382V21.0469H22.7244V20.8784H22.9104V20.7097H23.0966V20.5403H23.2829V20.3384H28.2857V20.5403H28.8442V20.7097H29.0304V20.8784H29.2167V21.0469H29.4027V21.384H29.589V22.4763H29.4027V22.8132H29.2167V23.0159H29.0304V23.1842H28.6583V23.353H27.6901V23.5216H25.643V25.207H23.283V25.0386H23.0967V24.8699H22.9106V24.7011H22.7246V24.3641H22.5383V24.1955H22.352V24.0271H22.1662V23.8584H21.98V23.6897H20.9152V23.8584H20.7289V24.0271H20.5426V24.1955H20.3568V24.5327H20.1705V24.7011H19.9842V24.8699H19.7983V25.0386H19.6121V25.207H14.6081V25.2068V25.2068ZM30.6156 25.2068V20.3383H34.5021V20.5402H35.0605V20.7096H35.2465V20.8783H35.4335V21.0467H35.6198V21.3839H35.8057V21.8018H35.6198V22.1389H35.4335V22.4761H35.2465V23.4405H35.4335V23.6089H35.6198V25.2068H34.7851V24.027H34.5988V23.5212H34.3763V23.3526H31.6731V25.2066H30.6156V25.2068V25.2068ZM36.8332 25.2068V20.3383H41.0918V21.1275H37.8906V22.3953H40.9058V23.0157H37.8906V24.4518H41.0918V25.2068H36.8332V25.2068ZM42.3055 25.2068V24.4518H45.1346V24.2831H45.507V23.3528H45.3207V23.1839H43.6083V23.0156H42.8637V22.8129H42.6774V22.6442H42.4915V22.4759H42.3052V22.3072H42.1189V21.2151H42.3052V21.0463H42.4915V20.7093H42.8636V20.5399H43.2356V20.338H46.3401V21.1272H43.3249V21.2958H43.1389V22.2264H43.5485V22.395H45.5959V22.5634H45.968V22.7322H46.1542V22.9009H46.3401V23.0693H46.564V24.364H46.3401V24.5327H46.1542V24.7011H45.968V24.8699H45.7817V25.0386H45.0375V25.207H42.3055V25.2068V25.2068ZM47.5915 25.2068V24.4518H50.6067V24.2831H50.793V23.1839H48.8944V23.0156H48.336V22.8129H47.9637V22.6442H47.7777V22.4759H47.5915V22.1386H47.4052V21.3836H47.5915V21.0465H47.7777V20.878H47.9637V20.7093H48.1499V20.5399H48.522V20.338H51.6266V21.1272H48.6113V21.2958H48.4253V22.2264H48.7974V22.395H50.8823V22.5634H51.4406V22.7322H51.6266V23.0692H51.8129V23.6088H51.9999V23.8582H51.8129V24.3638H51.6266V24.7009H51.2546V24.8696H51.0682V25.0383H50.3238V25.2068H47.5915V25.2068ZM23.7439 24.6201H24.5851V20.9589H23.7439V21.1274H23.5576V21.296H23.3716V21.4647H23.1854V21.6331H22.9992V21.8018H22.8132V21.9705H22.6269V22.3076H22.4406V23.238H22.6269V23.4406H22.8132V23.7776H22.9992V23.9463H23.1854V24.1148H23.3716V24.2834H23.5576V24.4521H23.7439V24.6201V24.6201ZM15.4791 24.4518H19.3368V24.2831H19.5227V24.1145H19.709V23.9461H19.8953V23.7773H20.0811V23.6086H20.2673V23.2378H20.4536V23.069H20.6396V22.3072H20.4536V22.1385H20.2673V21.97H20.0811V21.8013H19.8953V21.6326H19.709V21.4641H19.5227V21.2954H19.3368V21.1268H15.4791V22.3946H18.4945V23.0151H15.4791V24.4518V24.4518ZM31.6731 22.5636H34.3765V22.3951H34.5989V21.296H34.3765V21.1274H31.6731V22.5636ZM3.88724 16.3398V16.0898H4.07352V15.7525H4.25936V15.4155H4.44565V14.9098H4.63178V14.5386H4.81777V14.0329H5.00406V13.6958H5.1902V13.3588H5.37618V12.8532H5.56247V12.5159H5.74861V12.1789H5.9346V11.6393H6.12088V11.4706H7.73637V11.6393H7.92266V12.0102H8.10894V12.3475H8.29493V12.8531H8.48107V13.1901H8.66735V13.5271H8.85334V14.0327H9.077V14.37H9.26328V14.7071H9.44942V15.2467H9.63526V15.5839H10.4768V11.4703H12.2786V11.639H12.4644V12.0099H12.6507V12.3472H12.837V12.6842H13.0228V13.0213H13.2091V13.3586H13.3954V13.8642H13.5812V14.2012H13.7675V14.5382H14.7957V14.0325H14.982V13.6954H15.1683V13.3584H15.3542V12.8528H15.5404V12.5155H15.7632V12.0099H15.9491V11.639H16.1353V11.4703H17.9005V16.3396H17.0666V12.9341H16.2245V13.2711H16.0382V13.6082H15.8524V13.9455H15.6661V14.485H15.4798V14.8221H15.294V15.1591H15.0712V15.4964H14.8849V16.002H14.6985V16.3398H13.8643V16.1706H13.6782V15.8334H13.4923V15.4964H13.3061V15.1591H13.1198V14.6535H12.9338V14.2825H12.7475V13.9455H12.5238V13.6082H12.3376V13.1026H11.4963V16.34H8.95016V15.8336H8.76417V15.4965H8.57803V15.1592H5.27936V15.4965H5.09308V15.8336H4.9068V16.34H3.88724V16.3398V16.3398ZM19.3368 16.3398V11.4706H23.5577V12.2596H20.3566V13.5273H23.3719V14.2823H20.3566V15.5842H23.5577V16.3398H19.3368ZM24.7714 16.3398V11.4706H28.6579V11.6393H29.2163V11.8079H29.4023V12.0102H29.5886V12.1789H29.7747V12.5159H29.9607V12.9341H29.7747V13.4397H29.5886V13.608H29.4023V14.5386H29.5886V14.7072H29.7747V16.3397H28.941V14.9905H28.7547V14.6532H28.5687V14.4849H25.8286V16.3397H24.7714V16.3398V16.3398ZM31.174 16.3398V11.4706H32.0453V16.3398H31.174ZM35.1574 16.3398V16.1706H34.3765V16.002H34.004V15.8334H33.8182V15.6647H33.6319V15.3277H33.4449V14.9907H33.2589V14.1136H33.0726V13.6958H33.2589V12.8532H33.4449V12.5159H33.6319V12.3476H33.8182V12.0103H34.1902V11.808H34.5988V11.6394H35.1572V11.4707H36.9222V12.2598H35.0605V12.4285H34.6881V12.5968H34.5021V12.7655H34.316V13.2711H34.1297V14.7073H34.316V15.0786H34.5021V15.4156H34.8743V15.5843H36.4609V15.4156H36.6472V14.9099H36.8332V14.5387H37.0193V14.2017H37.2056V13.6961H37.3916V13.3591H37.6144V13.0218H37.8007V12.5162H37.9877V12.1792H38.1737V11.8081H38.3599V11.4709H40.1241V12.0104H40.3479V12.3477H40.5339V12.6848H40.7201V13.1904H40.9063V13.5274H41.0923V13.8647H41.2785V14.3703H41.4648V14.7073H41.6508V15.0786H41.8371V15.5843H42.6783V11.4707H44.4802V11.808H44.6662V12.0103H44.8525V12.3476H45.0388V12.6846H45.2246V12.8533H45.4109V13.1904H45.5972V13.5274H45.7832V13.696H45.9695V14.033H46.1556V14.3703H46.3416V14.5387H47.2207V11.4707H48.2405V16.34H46.625V16.1707H46.4387V15.8336H46.2524V15.6648H46.0665V15.3278H45.8803V14.9908H45.694V14.8221H45.508V14.485H45.3218V14.1138H45.1355V13.9455H44.9496V13.6082H44.7632V13.4398H44.5771V13.1026H43.7358V16.34H41.3758V16.1707H41.1895V15.8336H41.0032V15.4965H40.8174V15.1592H37.5189V15.4965H37.332V16.0021H37.1457V16.34H35.1574V16.3398V16.3398ZM37.7552 14.4936H40.687L39.2432 12.0275L37.7552 14.4936ZM5.4605 14.4107H8.39131L6.94798 11.9446L5.4605 14.4107V14.4107Z" fill="#272727"/>
<path d="M0.529297 38.418C0.529297 37.5515 0.861982 36.8115 1.52748 36.198C2.19299 35.5846 2.99451 35.2778 3.93218 35.2778C4.86986 35.2778 5.6706 35.5846 6.3344 36.198C6.99808 36.8115 7.33011 37.5514 7.33011 38.418C7.33011 39.2847 6.99821 40.0254 6.3344 40.6403C5.6706 41.2555 4.86999 41.5628 3.93218 41.5628C2.99451 41.5628 2.19299 41.2554 1.52748 40.6403C0.861982 40.0254 0.529297 39.2846 0.529297 38.418V38.418ZM6.77546 38.418C6.77546 37.6913 6.4982 37.0716 5.94368 36.5591C5.38916 36.0465 4.71871 35.7903 3.93218 35.7903C3.14579 35.7903 2.47442 36.0465 1.9182 36.5591C1.36186 37.0716 1.08382 37.6913 1.08382 38.418C1.08382 39.1448 1.36186 39.7654 1.9182 40.2793C2.47442 40.7934 3.14579 41.0504 3.93218 41.0504C4.71871 41.0504 5.38916 40.7933 5.94368 40.2793C6.4982 39.7652 6.77546 39.1448 6.77546 38.418ZM4.99088 40.3142L3.9271 38.6509H3.32211V40.3142H2.7222V36.4426H3.79603C4.80426 36.4426 5.30844 36.7998 5.30844 37.5142C5.30844 38.0112 5.03783 38.3621 4.49674 38.5671L5.64112 40.3142H4.99088V40.3142ZM3.32224 36.9178V38.2036C3.37271 38.2099 3.50377 38.2129 3.71543 38.2129C4.10524 38.2129 4.3675 38.1671 4.50183 38.0755C4.63616 37.9839 4.70345 37.8092 4.70345 37.5512C4.70345 37.1258 4.40102 36.913 3.79603 36.913H3.55907L3.32224 36.9178V36.9178Z" fill="black"/>
</g>
<defs>
<filter id="filter0_i_2104_369" x="0" y="0" width="52" height="48" filterUnits="userSpaceOnUse" color-interpolation-filters="sRGB">
<feFlood flood-opacity="0" result="BackgroundImageFix"/>
<feBlend mode="normal" in="SourceGraphic" in2="BackgroundImageFix" result="shape"/>
<feColorMatrix in="SourceAlpha" type="matrix" values="0 0 0 0 0 0 0 0 0 0 0 0 0 0 0 0 0 0 127 0" result="hardAlpha"/>
<feOffset dy="4"/>
<feGaussianBlur stdDeviation="2"/>
<feComposite in2="hardAlpha" operator="arithmetic" k2="-1" k3="1"/>
<feColorMatrix type="matrix" values="0 0 0 0 0 0 0 0 0 0 0 0 0 0 0 0 0 0 1 0"/>
<feBlend mode="normal" in2="shape" result="effect1_innerShadow_2104_369"/>
</filter>
<clipPath id="clip0_2104_369">
<rect width="52" height="44" fill="white"/>
</clipPath>
</defs>
</svg>
