<svg width="83" height="40" viewBox="0 0 83 40" fill="none" xmlns="http://www.w3.org/2000/svg">
<g clip-path="url(#clip0_2104_318)">
<path d="M17.1074 12.2531C17.906 11.9815 18.7578 11.8367 19.6416 11.8367C23.5104 11.8367 26.7402 14.6392 27.4785 18.3651L32.9622 17.2245C31.7057 10.8952 26.2185 6.13013 19.6416 6.13013C18.1332 6.13013 16.6886 6.37997 15.3328 6.84344L17.1074 12.2531Z" fill="#FFCB05"/>
<path d="M10.637 30.3793L14.346 26.103C12.692 24.6076 11.6485 22.4242 11.6485 19.9909C11.6485 17.5613 12.692 15.3779 14.346 13.8861L10.637 9.6062C7.82592 12.1481 6.05127 15.8595 6.05127 19.9909C6.05127 24.126 7.82592 27.8374 10.637 30.3793" fill="#2093F8"/>
<path d="M27.4785 21.6276C26.7367 25.3498 23.5104 28.1488 19.6452 28.1488C18.7578 28.1488 17.9025 28.004 17.1074 27.7288L15.3328 33.1456C16.6886 33.6055 18.1367 33.8553 19.6452 33.8553C26.2149 33.8553 31.6986 29.0975 32.9622 22.7754L27.4785 21.6276Z" fill="#EF2323"/>
<g filter="url(#filter0_d_2104_318)">
<path d="M37.7573 26.2804C37.5763 25.9835 37.335 25.5092 37.1859 25.158C36.3163 23.1013 36.2773 20.9722 37.0084 18.93C37.8141 16.6887 39.3545 14.976 41.3457 14.0998C43.8479 13.0026 46.6129 13.2163 49.0122 14.6682C50.5348 15.559 51.6138 16.9349 52.4337 18.883C52.5367 19.1328 52.6289 19.3971 52.7212 19.6252L37.7573 26.2804ZM42.7548 17.4056C40.9766 18.1841 40.0608 19.8859 40.2525 21.8774L47.777 18.5716C46.4815 17.0218 44.7992 16.5077 42.7548 17.4056V17.4056ZM48.714 24.5967C48.7105 24.5967 48.7105 24.6003 48.7105 24.6003L48.5543 24.4917C48.1036 25.234 47.4044 25.8387 46.5206 26.2297C44.8382 26.9757 43.2801 26.7837 42.1585 25.7808L42.0555 25.9401C42.0555 25.9401 42.0555 25.9365 42.052 25.9365L40.1425 28.8513C40.6181 29.188 41.1256 29.4704 41.658 29.6986C43.7663 30.5929 45.9243 30.5495 48.0503 29.608C49.5872 28.9273 50.7939 27.8917 51.6174 26.5774L48.714 24.5967ZM57.9493 9.81262V26.0125L60.4197 27.0336L59.0177 30.372L56.2918 29.2134C55.6813 28.9418 55.2625 28.529 54.9502 28.0619C54.6485 27.5876 54.4249 26.9322 54.4249 26.0559V9.81262H57.9493ZM64.3452 21.8883C64.3452 20.5087 64.945 19.2704 65.8891 18.4303L63.3549 15.5481C61.6371 17.0979 60.5545 19.3609 60.5545 21.8811C60.551 24.4048 61.6335 26.6715 63.3478 28.2212L65.8785 25.339C64.9379 24.4953 64.3452 23.2642 64.3452 21.8883V21.8883ZM68.8457 26.4832C68.3488 26.4832 67.8661 26.3963 67.4189 26.2442L66.2086 29.9122C67.0356 30.1946 67.9194 30.3503 68.8422 30.3503C72.8529 30.3539 76.1999 27.45 76.9772 23.5937L73.2575 22.8189C72.8351 24.9154 71.0214 26.4868 68.8457 26.4832V26.4832ZM68.8564 13.4263C67.9371 13.4263 67.0533 13.5784 66.2263 13.8572L67.426 17.5287C67.8768 17.3767 68.3559 17.2934 68.8528 17.2934C71.0321 17.297 72.8493 18.8757 73.2611 20.9758L76.9807 20.2082C76.2176 16.3447 72.8706 13.4299 68.8564 13.4263V13.4263Z" fill="black"/>
<path d="M60.5545 21.8811C60.5545 19.5426 61.4866 17.4255 62.9935 15.8942L63.3246 16.2708M63.3246 16.2708C61.9218 17.7092 61.0545 19.691 61.0545 21.8811V21.8818C61.0515 24.0745 61.9181 26.0591 63.3176 27.4979L65.1922 25.3628C64.3561 24.4517 63.8452 23.2314 63.8452 21.8883C63.8452 20.542 64.3616 19.3156 65.2016 18.4056L63.3246 16.2708ZM48.7533 15.096L48.7533 15.0961L48.7597 15.0998C50.1647 15.9217 51.1821 17.1987 51.9721 19.0751C52.0102 19.1676 52.0471 19.2631 52.0843 19.3613L37.9703 25.6385C37.8521 25.4138 37.7324 25.1658 37.6464 24.9631C36.8263 23.0235 36.7898 21.0243 37.4791 19.0989C38.2431 16.9738 39.6934 15.3733 41.5466 14.5576C43.8935 13.5287 46.4872 13.7246 48.7533 15.096ZM39.7548 21.9253L39.821 22.6131L40.4536 22.3352L47.9782 19.0293L48.5876 18.7616L48.1607 18.2509C47.4621 17.4152 46.6319 16.8272 45.6683 16.5857C44.7024 16.3437 43.6566 16.4634 42.5539 16.9477C40.5591 17.8212 39.5445 19.74 39.7548 21.9253ZM40.8333 28.7091L41.5551 27.6073L41.5551 27.636L42.283 26.5094C43.5236 27.3411 45.1042 27.4047 46.7232 26.6868C47.5172 26.3354 48.1851 25.8222 48.6799 25.1881L49.2107 25.5573L49.2107 25.5408L50.9249 26.7102C50.1721 27.7483 49.138 28.5794 47.8479 29.1509C45.8434 30.0385 43.8298 30.0764 41.8543 29.2387C41.5013 29.0874 41.1602 28.9109 40.8333 28.7091ZM54.9249 26.0559V10.3126H57.4493V26.0125V26.3469L57.7583 26.4746L59.764 27.3036L58.7511 29.7154L56.4914 28.7549C55.9872 28.5297 55.6385 28.1903 55.3691 27.7888C55.1231 27.4 54.9249 26.8402 54.9249 26.0559Z" stroke="#323238"/>
</g>
</g>
<defs>
<filter id="filter0_d_2104_318" x="32.4941" y="9.81262" width="48.4866" height="28.5594" filterUnits="userSpaceOnUse" color-interpolation-filters="sRGB">
<feFlood flood-opacity="0" result="BackgroundImageFix"/>
<feColorMatrix in="SourceAlpha" type="matrix" values="0 0 0 0 0 0 0 0 0 0 0 0 0 0 0 0 0 0 127 0" result="hardAlpha"/>
<feOffset dy="4"/>
<feGaussianBlur stdDeviation="2"/>
<feComposite in2="hardAlpha" operator="out"/>
<feColorMatrix type="matrix" values="0 0 0 0 0 0 0 0 0 0 0 0 0 0 0 0 0 0 0.25 0"/>
<feBlend mode="normal" in2="BackgroundImageFix" result="effect1_dropShadow_2104_318"/>
<feBlend mode="normal" in="SourceGraphic" in2="effect1_dropShadow_2104_318" result="shape"/>
</filter>
<clipPath id="clip0_2104_318">
<rect width="83" height="40" fill="white"/>
</clipPath>
</defs>
</svg>

